<svg width="37" height="37" viewBox="0 0 37 37" fill="none" xmlns="http://www.w3.org/2000/svg">
<path d="M14.5509 1.63795C16.7162 -0.5432 20.251 -0.5432 22.4348 1.6213L23.7858 2.96995C24.304 3.48795 25.0072 3.7858 25.7475 3.7858H27.6537C30.7258 3.7858 33.2242 6.28145 33.2242 9.35245V11.2598C33.2242 11.9979 33.5203 12.7009 34.0385 13.2189L35.371 14.551C36.4259 15.587 36.9996 16.993 36.9996 18.4729C37.0181 19.9529 36.4444 21.3608 35.408 22.4135L34.0385 23.7824C33.5203 24.3004 33.2242 25.0035 33.2242 25.7453V27.649C33.2242 30.7199 30.7258 33.2193 27.6537 33.2193H25.7475C25.0072 33.2193 24.304 33.5135 23.7858 34.0314L22.4533 35.3634C21.3614 36.4568 19.9364 36.9915 18.5114 36.9915C17.0863 36.9915 15.6613 36.4568 14.5694 35.3838L13.2184 34.0314C12.7003 33.5135 11.997 33.2193 11.2567 33.2193H9.35054C6.27843 33.2193 3.78002 30.7199 3.78002 27.649V25.7453C3.78002 25.0035 3.48392 24.3004 2.96573 23.764L1.63325 22.4504C-0.532038 20.2878 -0.550545 16.7524 1.61474 14.5713L2.96573 13.2189C3.48392 12.7009 3.78002 11.998 3.78002 11.2395V9.35245C3.78002 6.28145 6.27843 3.7858 9.35054 3.7858H11.2567C11.997 3.7858 12.7003 3.48795 13.2184 2.96995L14.5509 1.63795ZM23.2676 21.6364C22.3608 21.6364 21.639 22.3598 21.639 23.246C21.639 24.1525 22.3608 24.874 23.2676 24.874C24.1559 24.874 24.8777 24.1525 24.8777 23.246C24.8777 22.3598 24.1559 21.6364 23.2676 21.6364ZM24.3965 12.59C23.7673 11.9628 22.7494 11.9628 22.1202 12.59L12.6077 22.0989C11.9785 22.728 11.9785 23.764 12.6077 24.393C12.9038 24.7074 13.311 24.874 13.7366 24.874C14.1808 24.874 14.5879 24.7074 14.884 24.393L24.3965 14.8858C25.0257 14.2568 25.0257 13.219 24.3965 12.59ZM13.7551 12.1274C12.8668 12.1274 12.1266 12.849 12.1266 13.7369C12.1266 14.6453 12.8668 15.3649 13.7551 15.3649C14.6435 15.3649 15.3652 14.6453 15.3652 13.7369C15.3652 12.849 14.6435 12.1274 13.7551 12.1274Z" fill="#D6CFCF"/>
</svg>
