<svg width="32" height="31" viewBox="0 0 32 31" fill="none" xmlns="http://www.w3.org/2000/svg">
<path fill-rule="evenodd" clip-rule="evenodd" d="M15.7464 1.59867C18.2479 0.0171052 21.5711 -0.419826 24.4419 0.50019C30.6866 2.51407 32.6251 9.32188 30.8912 14.7389C28.2158 23.2467 16.7895 29.593 16.3048 29.8592C16.1325 29.9545 15.9417 30.0022 15.751 30.0022C15.5602 30.0022 15.371 29.9561 15.1987 29.8622C14.7171 29.5992 3.37384 23.3467 0.609174 14.7404C0.607636 14.7404 0.607636 14.7389 0.607636 14.7389C-1.12778 9.32034 0.804563 2.51099 7.04313 0.50019C9.97241 -0.447518 13.1648 -0.030588 15.7464 1.59867ZM7.75084 2.69715C2.70306 4.32487 1.43534 9.7542 2.80614 14.0358C4.9631 20.7467 13.4848 26.1729 15.7494 27.516C18.0218 26.1591 26.605 20.6728 28.6927 14.042C30.0635 9.75573 28.7912 4.32641 23.7357 2.69715C21.2865 1.91098 18.4295 2.38945 16.4571 3.91563C16.0448 4.23256 15.4725 4.23872 15.0571 3.92486C12.9678 2.35407 10.2386 1.89406 7.75084 2.69715ZM22.2588 5.75243C24.3557 6.43091 25.825 8.28786 26.005 10.4833C26.0558 11.1187 25.5835 11.6756 24.9481 11.7264C24.9157 11.7295 24.885 11.731 24.8527 11.731C24.2573 11.731 23.7526 11.2741 23.7034 10.671C23.6019 9.40634 22.7557 8.33863 21.5511 7.9494C20.9434 7.75247 20.6111 7.10169 20.8064 6.49706C21.0049 5.8909 21.6495 5.56166 22.2588 5.75243Z" fill="black"/>
</svg>
