<svg width="30" height="32" viewBox="0 0 30 32" fill="none" xmlns="http://www.w3.org/2000/svg">
<path d="M10.476 30.0639V25.2359C10.476 24.0034 11.4824 23.0043 12.7238 23.0043H17.262C17.8582 23.0043 18.4299 23.2395 18.8515 23.6579C19.2731 24.0764 19.5099 24.644 19.5099 25.2359V30.0639C19.5061 30.5763 19.7085 31.0689 20.0722 31.4326C20.4358 31.7962 20.9306 32.0007 21.4468 32.0007H24.5429C25.9889 32.0044 27.377 31.4368 28.4008 30.423C29.4246 29.4093 30 28.0328 30 26.5973V12.8431C30 11.6835 29.4822 10.5836 28.5862 9.83965L18.0537 1.48891C16.2216 0.024745 13.5965 0.0720194 11.819 1.60119L1.52686 9.83965C0.588538 10.5617 0.0277141 11.6649 0 12.8431V26.5832C0 29.5752 2.44323 32.0007 5.45712 32.0007H8.48256C9.55457 32.0007 10.4258 31.1421 10.4336 30.0779L10.476 30.0639Z" fill="#F3790E"/>
</svg>
