<svg width="44" height="40" viewBox="0 0 44 40" fill="none" xmlns="http://www.w3.org/2000/svg">
<g filter="url(#filter0_d_1_139)">
<path d="M29.8054 0.000671387C35.9368 0.000671387 39.5556 3.52884 39.5556 9.56832H32.0336V9.62994C28.5426 9.62994 25.7126 12.3891 25.7126 15.7927C25.7126 19.1963 28.5426 21.9554 32.0336 21.9554H39.5556V22.5101C39.5556 28.4725 35.9368 32.0007 29.8054 32.0007H13.7501C7.61877 32.0007 4 28.4725 4 22.5101V9.49128C4 3.52884 7.61877 0.000671387 13.7501 0.000671387H29.8054ZM38.2282 12.2183C38.9613 12.2183 39.5556 12.7977 39.5556 13.5125V18.0113C39.547 18.7225 38.9577 19.2971 38.2282 19.3054H32.1758C30.4085 19.3286 28.8631 18.1489 28.4622 16.4706C28.2615 15.4287 28.5433 14.3537 29.2321 13.5335C29.921 12.7133 30.9464 12.2319 32.0336 12.2183H38.2282ZM32.8869 14.2982H32.3022C31.9433 14.2941 31.5975 14.4303 31.3422 14.6763C31.0869 14.9223 30.9432 15.2578 30.9432 15.6078C30.9432 16.3421 31.5491 16.9398 32.3022 16.9482H32.8869C33.6375 16.9482 34.2459 16.355 34.2459 15.6232C34.2459 14.8914 33.6375 14.2982 32.8869 14.2982ZM22.4573 6.91834H12.4227C11.6783 6.91829 11.0724 7.50218 11.0637 8.22792C11.0637 8.96223 11.6696 9.55988 12.4227 9.56832H22.4573C23.2078 9.56832 23.8163 8.9751 23.8163 8.24333C23.8163 7.51156 23.2078 6.91834 22.4573 6.91834Z" fill="#D6CFCF"/>
</g>
<defs>
<filter id="filter0_d_1_139" x="0" y="0.000671387" width="43.5556" height="40" filterUnits="userSpaceOnUse" color-interpolation-filters="sRGB">
<feFlood flood-opacity="0" result="BackgroundImageFix"/>
<feColorMatrix in="SourceAlpha" type="matrix" values="0 0 0 0 0 0 0 0 0 0 0 0 0 0 0 0 0 0 127 0" result="hardAlpha"/>
<feOffset dy="4"/>
<feGaussianBlur stdDeviation="2"/>
<feComposite in2="hardAlpha" operator="out"/>
<feColorMatrix type="matrix" values="0 0 0 0 0 0 0 0 0 0 0 0 0 0 0 0 0 0 0.25 0"/>
<feBlend mode="normal" in2="BackgroundImageFix" result="effect1_dropShadow_1_139"/>
<feBlend mode="normal" in="SourceGraphic" in2="effect1_dropShadow_1_139" result="shape"/>
</filter>
</defs>
</svg>
